<svg width="120" height="48" viewBox="0 0 120 48" fill="none" xmlns="http://www.w3.org/2000/svg">
<g id="635d884670620b9e31cc1f78_Logo%20Triad.svg">
<g id="Clip path group">
<mask id="mask0_1_771" style="mask-type:luminance" maskUnits="userSpaceOnUse" x="0" y="0" width="49" height="48">
<g id="a">
<path id="Vector" d="M48.59 0H0.590027V48H48.59V0Z" fill="white"/>
</g>
</mask>
<g mask="url(#mask0_1_771)">
<g id="Group">
<path id="Vector_2" d="M24.59 20.25C28.7322 20.25 32.09 16.8922 32.09 12.75C32.09 8.60786 28.7322 5.25 24.59 5.25C20.4479 5.25 17.09 8.60786 17.09 12.75C17.09 16.8922 20.4479 20.25 24.59 20.25Z" stroke="white" stroke-width="1.2" stroke-linecap="round" stroke-linejoin="round"/>
<path id="Vector_3" d="M35.84 39.75C39.9822 39.75 43.34 36.3922 43.34 32.25C43.34 28.1078 39.9822 24.75 35.84 24.75C31.6979 24.75 28.34 28.1078 28.34 32.25C28.34 36.3922 31.6979 39.75 35.84 39.75Z" stroke="white" stroke-width="1.2" stroke-linecap="round" stroke-linejoin="round"/>
<path id="Vector_4" d="M13.34 39.75C17.4822 39.75 20.84 36.3922 20.84 32.25C20.84 28.1078 17.4822 24.75 13.34 24.75C9.19789 24.75 5.84003 28.1078 5.84003 32.25C5.84003 36.3922 9.19789 39.75 13.34 39.75Z" stroke="white" stroke-width="1.2" stroke-linecap="round" stroke-linejoin="round"/>
</g>
</g>
</g>
<path id="Vector_5" d="M61.4219 18.9335V15.9637H75.4135V18.9335H70.1978V33H66.6376V18.9335H61.4219ZM76.3244 33V20.2228H79.7599V22.4521H79.8931C80.126 21.6592 80.517 21.0603 81.066 20.6554C81.615 20.245 82.2472 20.0398 82.9626 20.0398C83.1401 20.0398 83.3314 20.0509 83.5366 20.0731C83.7418 20.0953 83.922 20.1258 84.0773 20.1646V23.3089C83.9108 23.259 83.6808 23.2147 83.3868 23.1759C83.0929 23.1371 82.824 23.1177 82.5799 23.1177C82.0586 23.1177 81.5928 23.2313 81.1824 23.4587C80.7776 23.6806 80.4559 23.9911 80.2175 24.3904C79.9846 24.7897 79.8682 25.2499 79.8682 25.7712V33H76.3244ZM85.9094 33V20.2228H89.453V33H85.9094ZM87.6895 18.5758C87.1627 18.5758 86.7108 18.4011 86.3336 18.0517C85.9621 17.6968 85.7764 17.2726 85.7764 16.779C85.7764 16.291 85.9621 15.8723 86.3336 15.5229C86.7108 15.168 87.1627 14.9905 87.6895 14.9905C88.2164 14.9905 88.6656 15.168 89.0371 15.5229C89.4143 15.8723 89.6028 16.291 89.6028 16.779C89.6028 17.2726 89.4143 17.6968 89.0371 18.0517C88.6656 18.4011 88.2164 18.5758 87.6895 18.5758ZM95.9352 33.2412C95.12 33.2412 94.3936 33.0999 93.7558 32.817C93.1181 32.5287 92.6134 32.1043 92.2418 31.5443C91.8758 30.9786 91.6928 30.2743 91.6928 29.4313C91.6928 28.7215 91.8232 28.1254 92.0838 27.6429C92.3444 27.1605 92.6994 26.7723 93.1486 26.4784C93.5977 26.1844 94.108 25.9626 94.6792 25.8129C95.2559 25.6631 95.8604 25.5577 96.4926 25.4968C97.2358 25.4191 97.8347 25.347 98.2894 25.2804C98.7442 25.2084 99.074 25.1031 99.2792 24.9643C99.4844 24.8257 99.587 24.6205 99.587 24.3489V24.2989C99.587 23.772 99.4207 23.3645 99.088 23.076C98.7607 22.7877 98.2949 22.6435 97.6904 22.6435C97.0528 22.6435 96.5453 22.7849 96.1681 23.0677C95.7911 23.3451 95.5415 23.6944 95.4196 24.1159L92.142 23.8497C92.3084 23.0733 92.6356 22.4022 93.1236 21.8367C93.6116 21.2655 94.241 20.8273 95.0119 20.5223C95.7883 20.2117 96.6866 20.0565 97.7071 20.0565C98.4169 20.0565 99.0962 20.1396 99.7451 20.3061C100.4 20.4724 100.979 20.7303 101.484 21.0796C101.994 21.429 102.396 21.8782 102.69 22.4272C102.984 22.9707 103.131 23.6224 103.131 24.3821V33H99.77V31.2282H99.6702C99.4651 31.6275 99.1906 31.9797 98.8468 32.2846C98.5028 32.5841 98.0898 32.8198 97.6073 32.9917C97.1248 33.1581 96.5675 33.2412 95.9352 33.2412ZM96.9502 30.7956C97.4714 30.7956 97.9316 30.693 98.331 30.4878C98.7302 30.2771 99.0436 29.9943 99.271 29.6393C99.4984 29.2845 99.612 28.8823 99.612 28.4332V27.0773C99.5011 27.1493 99.3486 27.2159 99.1546 27.2769C98.9659 27.3324 98.7524 27.3851 98.514 27.4349C98.2756 27.4793 98.0371 27.5209 97.7986 27.5597C97.5601 27.5931 97.3439 27.6235 97.1497 27.6513C96.7338 27.7122 96.3706 27.8093 96.06 27.9424C95.7494 28.0755 95.5082 28.2557 95.3363 28.4831C95.1644 28.7049 95.0784 28.9822 95.0784 29.3149C95.0784 29.7975 95.2531 30.1662 95.6026 30.4213C95.9574 30.6708 96.4067 30.7956 96.9502 30.7956ZM110.588 33.208C109.618 33.208 108.739 32.9584 107.951 32.4593C107.169 31.9547 106.548 31.2143 106.088 30.2383C105.633 29.2567 105.406 28.0533 105.406 26.628C105.406 25.164 105.642 23.9467 106.113 22.9763C106.584 22.0002 107.211 21.271 107.993 20.7885C108.78 20.3004 109.643 20.0565 110.58 20.0565C111.295 20.0565 111.891 20.1785 112.368 20.4225C112.851 20.6609 113.239 20.9604 113.533 21.3209C113.832 21.6757 114.06 22.0252 114.215 22.369H114.323V15.9637H117.859V33H114.365V30.9537H114.215C114.049 31.3086 113.813 31.6607 113.508 32.0101C113.209 32.3539 112.818 32.6395 112.335 32.8669C111.858 33.0943 111.276 33.208 110.588 33.208ZM111.711 30.388C112.282 30.388 112.765 30.2327 113.159 29.9221C113.558 29.6061 113.863 29.1652 114.074 28.5995C114.29 28.0339 114.398 27.3712 114.398 26.6115C114.398 25.8516 114.293 25.1917 114.082 24.6316C113.871 24.0715 113.566 23.6389 113.167 23.3339C112.768 23.029 112.282 22.8765 111.711 22.8765C111.129 22.8765 110.638 23.0345 110.239 23.3506C109.84 23.6667 109.537 24.1048 109.332 24.6649C109.127 25.225 109.024 25.8738 109.024 26.6115C109.024 27.3545 109.127 28.0117 109.332 28.5829C109.543 29.1486 109.845 29.5923 110.239 29.9139C110.638 30.2299 111.129 30.388 111.711 30.388Z" fill="white"/>
</g>
</svg>
