<svg width="184" height="43" viewBox="0 0 184 43" fill="none" xmlns="http://www.w3.org/2000/svg">
<g id="635d19c1e5fc3d8686b32bd0_Captivate%20Logo.svg" clip-path="url(#clip0_1_1252)">
<path id="Vector" opacity="0.2" d="M21.1868 42.318C32.8725 42.318 42.3457 32.8448 42.3457 21.159C42.3457 9.4732 32.8725 0 21.1868 0C9.50097 0 0.027771 9.4732 0.027771 21.159C0.027771 32.8448 9.50097 42.318 21.1868 42.318Z" fill="url(#paint0_linear_1_1252)"/>
<path id="Vector_2" opacity="0.2" d="M21.1856 36.6361C29.7337 36.6361 36.6633 29.7065 36.6633 21.1584C36.6633 12.6103 29.7337 5.68066 21.1856 5.68066C12.6374 5.68066 5.70782 12.6103 5.70782 21.1584C5.70782 29.7065 12.6374 36.6361 21.1856 36.6361Z" fill="url(#paint1_linear_1_1252)"/>
<path id="Vector_3" d="M21.1884 29.9414C26.0386 29.9414 29.9704 26.0096 29.9704 21.1594C29.9704 16.3093 26.0386 12.3774 21.1884 12.3774C16.3383 12.3774 12.4064 16.3093 12.4064 21.1594C12.4064 26.0096 16.3383 29.9414 21.1884 29.9414Z" fill="url(#paint2_linear_1_1252)"/>
<path id="Vector_4" d="M78.4325 17.2615H74.9151C74.8148 16.6847 74.6298 16.1737 74.3602 15.7286C74.0906 15.2772 73.7552 14.8947 73.3539 14.5812C72.9527 14.2676 72.4949 14.0326 71.9807 13.8759C71.473 13.7128 70.9244 13.6314 70.3349 13.6314C69.2879 13.6314 68.3599 13.8946 67.5511 14.4214C66.7423 14.9417 66.1091 15.7066 65.6514 16.7161C65.1937 17.7192 64.9648 18.945 64.9648 20.3934C64.9648 21.8668 65.1937 23.1082 65.6514 24.1176C66.1153 25.1208 66.7486 25.8794 67.5511 26.3937C68.3599 26.9015 69.2848 27.1555 70.3256 27.1555C70.9024 27.1555 71.4416 27.0802 71.9431 26.9297C72.451 26.773 72.9056 26.5442 73.3068 26.2432C73.7144 25.9422 74.0561 25.5722 74.332 25.1334C74.6141 24.6946 74.8085 24.1929 74.9151 23.6286L78.4325 23.6474C78.3008 24.5628 78.0155 25.4218 77.5766 26.2244C77.1441 27.0269 76.5766 27.7354 75.8744 28.3498C75.1722 28.958 74.3508 29.4345 73.4104 29.7793C72.4699 30.1179 71.4259 30.2872 70.2785 30.2872C68.5857 30.2872 67.0747 29.8954 65.7454 29.1116C64.4162 28.3279 63.3692 27.1962 62.6042 25.7165C61.8393 24.2368 61.4568 22.4624 61.4568 20.3934C61.4568 18.318 61.8424 16.5437 62.6137 15.0702C63.3848 13.5905 64.435 12.4589 65.7643 11.6751C67.0934 10.8914 68.5982 10.4995 70.2785 10.4995C71.3507 10.4995 72.3476 10.65 73.2693 10.951C74.1909 11.2519 75.0122 11.6939 75.7333 12.277C76.4543 12.8539 77.0469 13.5623 77.5108 14.4025C77.981 15.2363 78.2882 16.1894 78.4325 17.2615Z" fill="white"/>
<path id="Vector_5" d="M85.6342 30.3156C84.7188 30.3156 83.8944 30.1525 83.1608 29.8264C82.4335 29.4941 81.8567 29.0051 81.4302 28.3593C81.0102 27.7135 80.8002 26.9172 80.8002 25.9705C80.8002 25.1554 80.9507 24.4814 81.2516 23.9484C81.5526 23.4155 81.9632 22.9892 82.4836 22.6694C83.004 22.3497 83.5903 22.1083 84.2423 21.9452C84.9007 21.776 85.5809 21.6537 86.2831 21.5784C87.1295 21.4906 87.8161 21.4123 88.3429 21.3434C88.8695 21.2681 89.2519 21.1552 89.4902 21.0047C89.7347 20.848 89.8569 20.6066 89.8569 20.2806V20.2242C89.8569 19.5156 89.6469 18.967 89.2269 18.5783C88.8068 18.1896 88.2018 17.9952 87.4118 17.9952C86.5778 17.9952 85.9163 18.177 85.4273 18.5407C84.9445 18.9043 84.6185 19.3338 84.4492 19.8292L81.2704 19.3777C81.5211 18.5 81.935 17.7664 82.5118 17.177C83.0886 16.5814 83.7941 16.1362 84.6279 15.8415C85.4619 15.5405 86.3835 15.3901 87.3929 15.3901C88.0889 15.3901 88.7817 15.4716 89.4714 15.6346C90.161 15.7977 90.7912 16.0673 91.3617 16.4434C91.9323 16.8133 92.39 17.3181 92.7348 17.9576C93.086 18.5971 93.2616 19.3965 93.2616 20.3558V30.024H89.9887V28.0395H89.8758C89.6689 28.4408 89.3774 28.817 89.0011 29.1681C88.6312 29.513 88.1642 29.7919 87.5998 30.0051C87.0419 30.212 86.3866 30.3156 85.6342 30.3156ZM86.5182 27.8138C87.2017 27.8138 87.7942 27.6791 88.2958 27.4094C88.7973 27.1336 89.183 26.7698 89.4526 26.3185C89.7284 25.867 89.8664 25.3749 89.8664 24.8419V23.1397C89.7598 23.2274 89.578 23.3089 89.3209 23.3842C89.0702 23.4594 88.788 23.5253 88.4745 23.5816C88.1609 23.6381 87.8506 23.6883 87.5434 23.7321C87.2362 23.776 86.9697 23.8136 86.744 23.845C86.2361 23.9139 85.7816 24.0268 85.3803 24.1835C84.9791 24.3403 84.6624 24.5598 84.4304 24.8419C84.1984 25.1178 84.0824 25.4752 84.0824 25.914C84.0824 26.541 84.3112 27.0145 84.769 27.3342C85.2267 27.654 85.8098 27.8138 86.5182 27.8138Z" fill="white"/>
<path id="Vector_6" d="M96.6848 35.4412V15.5781H100.033V17.967H100.23C100.406 17.6159 100.654 17.2428 100.973 16.8478C101.293 16.4465 101.726 16.1049 102.271 15.8226C102.817 15.5343 103.513 15.3901 104.359 15.3901C105.475 15.3901 106.482 15.6754 107.378 16.246C108.281 16.8102 108.996 17.6473 109.522 18.757C110.055 19.8605 110.322 21.2147 110.322 22.8198C110.322 24.4062 110.062 25.7542 109.541 26.864C109.021 27.9737 108.312 28.8201 107.416 29.4032C106.519 29.9864 105.503 30.2779 104.369 30.2779C103.541 30.2779 102.854 30.14 102.309 29.8641C101.763 29.5881 101.325 29.2558 100.992 28.8672C100.666 28.4722 100.412 28.0991 100.23 27.748H100.089V35.4412H96.6848ZM100.024 22.8011C100.024 23.7352 100.155 24.5534 100.419 25.2558C100.688 25.958 101.074 26.5066 101.575 26.9016C102.083 27.2903 102.698 27.4846 103.419 27.4846C104.171 27.4846 104.801 27.2841 105.309 26.8827C105.817 26.4752 106.199 25.9204 106.456 25.2181C106.72 24.5096 106.851 23.7039 106.851 22.8011C106.851 21.9045 106.723 21.1082 106.466 20.4123C106.209 19.7163 105.826 19.1708 105.318 18.7758C104.811 18.3808 104.177 18.1833 103.419 18.1833C102.691 18.1833 102.074 18.3746 101.566 18.757C101.058 19.1395 100.672 19.6756 100.409 20.3652C100.152 21.0549 100.024 21.8669 100.024 22.8011Z" fill="white"/>
<path id="Vector_7" d="M120.45 15.5781V18.2115H112.146V15.5781H120.45ZM114.197 12.1172H117.601V25.6789C117.601 26.1366 117.67 26.4877 117.808 26.7322C117.952 26.9705 118.14 27.1335 118.372 27.2213C118.604 27.3091 118.861 27.3529 119.144 27.3529C119.357 27.3529 119.551 27.3373 119.727 27.3059C119.908 27.2746 120.047 27.2464 120.14 27.2213L120.714 29.8829C120.533 29.9455 120.272 30.0145 119.933 30.0898C119.601 30.165 119.194 30.2088 118.711 30.2214C117.858 30.2465 117.09 30.1179 116.407 29.8358C115.723 29.5474 115.181 29.1022 114.78 28.5003C114.385 27.8984 114.19 27.146 114.197 26.2432V12.1172Z" fill="white"/>
<path id="Vector_8" d="M123.298 30.0242V15.5783H126.702V30.0242H123.298ZM125.01 13.5281C124.471 13.5281 124.006 13.3494 123.618 12.992C123.229 12.6284 123.035 12.1927 123.035 11.6848C123.035 11.1706 123.229 10.7349 123.618 10.3775C124.006 10.0138 124.471 9.83203 125.01 9.83203C125.556 9.83203 126.019 10.0138 126.401 10.3775C126.791 10.7349 126.985 11.1706 126.985 11.6848C126.985 12.1927 126.791 12.6284 126.401 12.992C126.019 13.3494 125.556 13.5281 125.01 13.5281Z" fill="white"/>
<path id="Vector_9" d="M143.107 15.5781L137.962 30.024H134.201L129.056 15.5781H132.686L136.007 26.309H136.156L139.486 15.5781H143.107Z" fill="white"/>
<path id="Vector_10" d="M149.206 30.3156C148.291 30.3156 147.466 30.1525 146.733 29.8264C146.006 29.4941 145.429 29.0051 145.002 28.3593C144.582 27.7135 144.372 26.9172 144.372 25.9705C144.372 25.1554 144.522 24.4814 144.823 23.9484C145.124 23.4155 145.535 22.9892 146.056 22.6694C146.575 22.3497 147.162 22.1083 147.814 21.9452C148.472 21.776 149.153 21.6537 149.855 21.5784C150.701 21.4906 151.388 21.4123 151.915 21.3434C152.441 21.2681 152.823 21.1552 153.062 21.0047C153.306 20.848 153.429 20.6066 153.429 20.2806V20.2242C153.429 19.5156 153.219 18.967 152.798 18.5783C152.378 18.1896 151.774 17.9952 150.984 17.9952C150.149 17.9952 149.489 18.177 148.999 18.5407C148.516 18.9043 148.19 19.3338 148.021 19.8292L144.842 19.3777C145.093 18.5 145.506 17.7664 146.083 17.177C146.66 16.5814 147.366 16.1362 148.2 15.8415C149.034 15.5405 149.956 15.3901 150.965 15.3901C151.66 15.3901 152.353 15.4716 153.043 15.6346C153.732 15.7977 154.363 16.0673 154.934 16.4434C155.504 16.8133 155.961 17.3181 156.306 17.9576C156.658 18.5971 156.833 19.3965 156.833 20.3558V30.024H153.56V28.0395H153.447C153.24 28.4408 152.949 28.817 152.573 29.1681C152.202 29.513 151.735 29.7919 151.172 30.0051C150.614 30.212 149.958 30.3156 149.206 30.3156ZM150.091 27.8138C150.774 27.8138 151.366 27.6791 151.868 27.4094C152.37 27.1336 152.754 26.7698 153.024 26.3185C153.3 25.867 153.439 25.3749 153.439 24.8419V23.1397C153.331 23.2274 153.15 23.3089 152.893 23.3842C152.642 23.4594 152.36 23.5253 152.046 23.5816C151.733 23.6381 151.422 23.6883 151.115 23.7321C150.808 23.776 150.541 23.8136 150.315 23.845C149.808 23.9139 149.354 24.0268 148.952 24.1835C148.551 24.3403 148.234 24.5598 148.003 24.8419C147.77 25.1178 147.654 25.4752 147.654 25.914C147.654 26.541 147.883 27.0145 148.341 27.3342C148.798 27.654 149.381 27.8138 150.091 27.8138Z" fill="white"/>
<path id="Vector_11" d="M167.47 15.5781V18.2115H159.166V15.5781H167.47ZM161.216 12.1172H164.621V25.6789C164.621 26.1366 164.689 26.4877 164.828 26.7322C164.971 26.9705 165.16 27.1335 165.391 27.2213C165.623 27.3091 165.881 27.3529 166.163 27.3529C166.376 27.3529 166.57 27.3373 166.746 27.3059C166.927 27.2746 167.066 27.2464 167.159 27.2213L167.734 29.8829C167.551 29.9455 167.292 30.0145 166.953 30.0898C166.621 30.165 166.213 30.2088 165.731 30.2214C164.878 30.2465 164.11 30.1179 163.427 29.8358C162.742 29.5474 162.2 29.1022 161.799 28.5003C161.404 27.8984 161.21 27.146 161.216 26.2432V12.1172Z" fill="white"/>
<path id="Vector_12" d="M176.557 30.3061C175.109 30.3061 173.859 30.0051 172.805 29.4032C171.758 28.795 170.953 27.9361 170.388 26.8263C169.824 25.7103 169.541 24.3967 169.541 22.8858C169.541 21.3997 169.824 20.0957 170.388 18.9734C170.959 17.8447 171.754 16.9669 172.777 16.34C173.799 15.7067 175 15.3901 176.379 15.3901C177.269 15.3901 178.109 15.5343 178.899 15.8226C179.696 16.1049 180.397 16.5437 181.006 17.1394C181.62 17.7351 182.103 18.4937 182.454 19.4153C182.805 20.3307 182.981 21.4217 182.981 22.6882V23.7321H171.14V21.4374H179.718C179.712 20.7853 179.571 20.2053 179.295 19.6974C179.019 19.1833 178.633 18.7789 178.137 18.4842C177.649 18.1896 177.078 18.0423 176.426 18.0423C175.729 18.0423 175.119 18.2115 174.592 18.55C174.065 18.8825 173.655 19.3213 173.36 19.8668C173.072 20.406 172.924 20.9985 172.918 21.6442V23.6475C172.918 24.4876 173.072 25.2087 173.379 25.8106C173.686 26.4063 174.116 26.864 174.667 27.1837C175.219 27.4971 175.864 27.654 176.605 27.654C177.099 27.654 177.548 27.5849 177.95 27.447C178.351 27.3028 178.699 27.0928 178.994 26.8169C179.288 26.541 179.511 26.1994 179.661 25.7918L182.84 26.1492C182.639 26.9894 182.257 27.7229 181.692 28.3499C181.134 28.9706 180.42 29.4534 179.548 29.7982C178.677 30.1367 177.68 30.3061 176.557 30.3061Z" fill="white"/>
</g>
<defs>
<linearGradient id="paint0_linear_1_1252" x1="0.027771" y1="0" x2="42.3457" y2="42.318" gradientUnits="userSpaceOnUse">
<stop stop-color="#11CCA8"/>
<stop offset="1" stop-color="#4AC5DF"/>
</linearGradient>
<linearGradient id="paint1_linear_1_1252" x1="5.70792" y1="5.68074" x2="36.6633" y2="36.6361" gradientUnits="userSpaceOnUse">
<stop stop-color="#11CCA8"/>
<stop offset="1" stop-color="#4AC5DF"/>
</linearGradient>
<linearGradient id="paint2_linear_1_1252" x1="12.4064" y1="12.3774" x2="29.9705" y2="29.9414" gradientUnits="userSpaceOnUse">
<stop stop-color="#11CCA8"/>
<stop offset="1" stop-color="#4AC5DF"/>
</linearGradient>
<clipPath id="clip0_1_1252">
<rect width="183.944" height="43" fill="white" transform="translate(0.027771)"/>
</clipPath>
</defs>
</svg>
