<svg width="180" height="38" viewBox="0 0 180 38" fill="none" xmlns="http://www.w3.org/2000/svg">
<g id="635d8846618e0a1d6ab00497_Logo%20Transfer%20Media.svg">
<g id="Clip path group">
<mask id="mask0_1_783" style="mask-type:luminance" maskUnits="userSpaceOnUse" x="0" y="0" width="38" height="38">
<g id="a">
<path id="Vector" d="M37.9234 0.333313H0.590027V37.6666H37.9234V0.333313Z" fill="white"/>
</g>
</mask>
<g mask="url(#mask0_1_783)">
<g id="Group">
<path id="Vector_2" d="M19.2567 23.6666C21.834 23.6666 23.9234 21.5773 23.9234 19C23.9234 16.4227 21.834 14.3333 19.2567 14.3333C16.6794 14.3333 14.59 16.4227 14.59 19C14.59 21.5773 16.6794 23.6666 19.2567 23.6666Z" stroke="white" stroke-width="0.933333" stroke-linecap="round" stroke-linejoin="round"/>
<path id="Vector_3" d="M11.834 26.4229C10.876 25.4658 10.1132 24.3316 9.58818 23.0833C9.03946 21.7919 8.75665 20.4032 8.75665 19C8.75665 17.5968 9.03946 16.2081 9.58818 14.9166C10.1132 13.6683 10.876 12.5341 11.834 11.5771" stroke="white" stroke-width="0.933333" stroke-linecap="round" stroke-linejoin="round"/>
<path id="Vector_4" d="M26.6796 11.5771C27.6376 12.5341 28.4004 13.6683 28.9254 14.9166C29.4742 16.2081 29.757 17.5968 29.757 19C29.757 20.4032 29.4742 21.7919 28.9254 23.0833C28.4004 24.3316 27.6376 25.4658 26.6796 26.4229" stroke="white" stroke-width="0.933333" stroke-linecap="round" stroke-linejoin="round"/>
<path id="Vector_5" d="M7.70679 30.55C6.21878 29.0592 5.03063 27.2968 4.20679 25.3583C3.3597 23.3455 2.92334 21.1838 2.92334 19C2.92334 16.8161 3.3597 14.6544 4.20679 12.6416C5.03063 10.7031 6.21878 8.9407 7.70679 7.44995" stroke="white" stroke-width="0.933333" stroke-linecap="round" stroke-linejoin="round"/>
<path id="Vector_6" d="M30.8067 7.44995C32.2947 8.9407 33.4828 10.7031 34.3067 12.6416C35.1538 14.6544 35.5901 16.8161 35.5901 19C35.5901 21.1838 35.1538 23.3455 34.3067 25.3583C33.4828 27.2968 32.2947 29.0592 30.8067 30.55" stroke="white" stroke-width="0.933333" stroke-linecap="round" stroke-linejoin="round"/>
</g>
</g>
</g>
<path id="Vector_7" d="M47.9037 15.0594V12.7496H58.7861V15.0594H54.7294V26H51.9603V15.0594H47.9037ZM59.4946 26V16.0621H62.1666V17.7961H62.2702C62.4514 17.1793 62.7554 16.7135 63.1824 16.3986C63.6094 16.0794 64.1011 15.9198 64.6576 15.9198C64.7956 15.9198 64.9444 15.9285 65.104 15.9458C65.2636 15.963 65.4038 15.9867 65.5246 16.0169V18.4625C65.3951 18.4237 65.2162 18.3892 64.9875 18.359C64.7589 18.3288 64.5498 18.3137 64.3599 18.3137C63.9545 18.3137 63.5922 18.4021 63.273 18.579C62.9582 18.7515 62.7079 18.9931 62.5225 19.3036C62.3413 19.6142 62.2508 19.9722 62.2508 20.3776V26H59.4946ZM69.4987 26.1876C68.8647 26.1876 68.2996 26.0776 67.8036 25.8577C67.3076 25.6334 66.915 25.3034 66.6261 24.8678C66.3414 24.4278 66.1991 23.88 66.1991 23.2244C66.1991 22.6723 66.3004 22.2086 66.5032 21.8333C66.7059 21.4581 66.9819 21.1562 67.3313 20.9276C67.6806 20.6989 68.0775 20.5265 68.5218 20.41C68.9703 20.2935 69.4404 20.2116 69.9322 20.1641C70.5101 20.1038 70.976 20.0477 71.3297 19.9959C71.6833 19.9399 71.94 19.8579 72.0996 19.75C72.2592 19.6422 72.339 19.4826 72.339 19.2713V19.2325C72.339 18.8227 72.2096 18.5057 71.9508 18.2813C71.6963 18.057 71.334 17.945 70.8639 17.945C70.3678 17.945 69.9732 18.0549 69.6798 18.2749C69.3866 18.4906 69.1925 18.7623 69.0975 19.0902L66.5484 18.883C66.6778 18.2792 66.9323 17.7573 67.3119 17.3174C67.6915 16.8731 68.181 16.5324 68.7806 16.2951C69.3844 16.0536 70.0831 15.9328 70.8768 15.9328C71.4289 15.9328 71.9573 15.9975 72.4619 16.1269C72.9709 16.2563 73.4217 16.4568 73.8141 16.7285C74.211 17.0003 74.5237 17.3497 74.7522 17.7767C74.9809 18.1994 75.0951 18.7063 75.0951 19.2972V26H72.4813V24.6219H72.4037C72.2441 24.9324 72.0306 25.2064 71.7631 25.4435C71.4957 25.6765 71.1744 25.8598 70.7992 25.9936C70.4239 26.1229 69.9904 26.1876 69.4987 26.1876ZM70.288 24.2855C70.6934 24.2855 71.0515 24.2057 71.362 24.0461C71.6726 23.8822 71.9163 23.6622 72.0932 23.3861C72.2699 23.1101 72.3584 22.7974 72.3584 22.448V21.3934C72.2722 21.4494 72.1535 21.5012 72.0025 21.5486C71.8559 21.5919 71.6899 21.6328 71.5044 21.6716C71.3189 21.7061 71.1334 21.7385 70.948 21.7686C70.7625 21.7946 70.5942 21.8183 70.4433 21.8398C70.1198 21.8873 69.8373 21.9628 69.5958 22.0663C69.3542 22.1698 69.1666 22.31 69.0329 22.4868C68.8991 22.6593 68.8323 22.875 68.8323 23.1338C68.8323 23.5091 68.9682 23.7959 69.2399 23.9944C69.516 24.1884 69.8653 24.2855 70.288 24.2855ZM79.9897 20.2547V26H77.2335V16.0621H79.8603V17.8155H79.9767C80.1967 17.2376 80.5655 16.7803 81.0831 16.4439C81.6007 16.1031 82.2283 15.9328 82.9658 15.9328C83.656 15.9328 84.2577 16.0838 84.771 16.3856C85.2842 16.6876 85.6832 17.119 85.9679 17.6797C86.2526 18.2361 86.3949 18.9003 86.3949 19.6724V26H83.6387V20.1641C83.6431 19.556 83.4878 19.0815 83.1729 18.7407C82.858 18.3957 82.4245 18.2232 81.8724 18.2232C81.5014 18.2232 81.1737 18.303 80.889 18.4625C80.6086 18.6221 80.3886 18.855 80.229 19.1613C80.0738 19.4632 79.994 19.8277 79.9897 20.2547ZM96.8354 18.896L94.3126 19.0513C94.2696 18.8356 94.1763 18.6415 94.0344 18.469C93.8919 18.2922 93.7043 18.152 93.4714 18.0485C93.2428 17.9407 92.9689 17.8867 92.6497 17.8867C92.2227 17.8867 91.8626 17.9772 91.5692 18.1584C91.276 18.3353 91.1292 18.5725 91.1292 18.8702C91.1292 19.1073 91.2242 19.3079 91.414 19.4718C91.6038 19.6358 91.9294 19.7673 92.3909 19.8665L94.1894 20.2288C95.1554 20.4272 95.8759 20.7464 96.351 21.1863C96.8251 21.6263 97.0622 22.2043 97.0622 22.9203C97.0622 23.5716 96.8699 24.1431 96.4863 24.6348C96.1064 25.1266 95.5847 25.5105 94.9211 25.7864C94.2603 26.0582 93.4994 26.1941 92.6368 26.1941C91.3212 26.1941 90.2731 25.9202 89.4924 25.3724C88.716 24.8204 88.2609 24.0698 88.1273 23.1208L90.8381 22.9785C90.9201 23.3797 91.1185 23.6859 91.4333 23.8973C91.7482 24.1043 92.1515 24.2078 92.6432 24.2078C93.1263 24.2078 93.5146 24.1151 93.8078 23.9296C94.1054 23.7398 94.2566 23.4961 94.2603 23.1985C94.2566 22.9484 94.1511 22.7435 93.9439 22.5839C93.7367 22.42 93.4175 22.2948 92.9861 22.2086L91.2651 21.8657C90.2947 21.6716 89.5722 21.3352 89.0977 20.8564C88.6275 20.3776 88.3925 19.7673 88.3925 19.0254C88.3925 18.3871 88.565 17.8371 88.9101 17.3756C89.2595 16.9141 89.749 16.5582 90.3788 16.3081C91.0129 16.0578 91.7547 15.9328 92.6045 15.9328C93.8596 15.9328 94.8474 16.198 95.5679 16.7285C96.2922 17.2591 96.715 17.9816 96.8354 18.896ZM104.141 16.0621V18.1326H98.0086V16.0621H104.141ZM99.4123 26V15.344C99.4123 14.6237 99.5523 14.0264 99.8332 13.5518C100.118 13.0774 100.506 12.7216 100.997 12.4843C101.489 12.247 102.048 12.1284 102.673 12.1284C103.096 12.1284 103.482 12.1608 103.832 12.2255C104.185 12.2903 104.449 12.3484 104.62 12.4002L104.129 14.4706C104.021 14.4361 103.888 14.4037 103.728 14.3736C103.572 14.3433 103.413 14.3283 103.249 14.3283C102.843 14.3283 102.561 14.4231 102.402 14.613C102.242 14.7984 102.162 15.0594 102.162 15.3957V26H99.4123ZM109.999 26.1941C108.976 26.1941 108.097 25.987 107.359 25.573C106.626 25.1546 106.06 24.5637 105.664 23.8002C105.267 23.0325 105.068 22.1245 105.068 21.0764C105.068 20.0541 105.267 19.157 105.664 18.3849C106.06 17.6128 106.619 17.0111 107.34 16.5798C108.064 16.1485 108.914 15.9328 109.889 15.9328C110.544 15.9328 111.155 16.0384 111.72 16.2498C112.289 16.4568 112.785 16.7696 113.208 17.1879C113.635 17.6063 113.967 18.1326 114.205 18.7666C114.442 19.3964 114.56 20.1339 114.56 20.9793V21.7363H106.169V20.0282H111.966C111.966 19.6314 111.88 19.2799 111.707 18.9737C111.534 18.6674 111.295 18.428 110.988 18.2555C110.687 18.0786 110.335 17.9902 109.934 17.9902C109.516 17.9902 109.145 18.0873 108.821 18.2813C108.502 18.4712 108.252 18.7278 108.071 19.0513C107.89 19.3704 107.796 19.7263 107.793 20.1189V21.7428C107.793 22.2345 107.883 22.6593 108.064 23.0173C108.25 23.3754 108.51 23.6514 108.847 23.8455C109.183 24.0396 109.583 24.1367 110.044 24.1367C110.35 24.1367 110.631 24.0936 110.885 24.0072C111.14 23.921 111.357 23.7916 111.539 23.6191C111.72 23.4465 111.858 23.2352 111.953 22.985L114.501 23.1532C114.373 23.7657 114.108 24.3006 113.706 24.7577C113.31 25.2107 112.796 25.5643 112.166 25.8188C111.541 26.069 110.819 26.1941 109.999 26.1941ZM116.359 26V16.0621H119.031V17.7961H119.135C119.316 17.1793 119.62 16.7135 120.046 16.3986C120.474 16.0794 120.966 15.9198 121.522 15.9198C121.66 15.9198 121.809 15.9285 121.968 15.9458C122.128 15.963 122.268 15.9867 122.389 16.0169V18.4625C122.259 18.4237 122.08 18.3892 121.852 18.359C121.623 18.3288 121.414 18.3137 121.224 18.3137C120.818 18.3137 120.456 18.4021 120.137 18.579C119.822 18.7515 119.572 18.9931 119.387 19.3036C119.205 19.6142 119.115 19.9722 119.115 20.3776V26H116.359ZM128.535 12.7496H130.45L134.954 23.7484H135.109L139.612 12.7496H141.527V26H140.025V15.9328H139.897L135.755 26H134.306L130.166 15.9328H130.036V26H128.535V12.7496ZM148.703 26.207C147.746 26.207 146.92 25.9957 146.225 25.573C145.536 25.146 145.003 24.5507 144.628 23.7872C144.256 23.0195 144.071 22.1267 144.071 21.1088C144.071 20.0908 144.256 19.1937 144.628 18.4172C145.003 17.6365 145.525 17.0283 146.193 16.5927C146.866 16.1528 147.651 15.9328 148.549 15.9328C149.066 15.9328 149.577 16.019 150.082 16.1916C150.586 16.3641 151.045 16.6444 151.46 17.0327C151.874 17.4166 152.203 17.9255 152.45 18.5596C152.695 19.1937 152.819 19.9743 152.819 20.9017V21.5486H145.158V20.2288H151.265C151.265 19.6681 151.153 19.1677 150.929 18.7278C150.709 18.2879 150.395 17.9407 149.985 17.6861C149.579 17.4316 149.1 17.3044 148.549 17.3044C147.94 17.3044 147.414 17.4554 146.969 17.7573C146.53 18.0549 146.191 18.4431 145.954 18.9219C145.717 19.4007 145.598 19.9139 145.598 20.4618V21.3416C145.598 22.0921 145.727 22.7284 145.987 23.2503C146.25 23.7678 146.614 24.1625 147.079 24.4342C147.545 24.7017 148.087 24.8354 148.703 24.8354C149.105 24.8354 149.467 24.7794 149.791 24.6672C150.118 24.5507 150.401 24.3782 150.638 24.1496C150.875 23.9167 151.058 23.6276 151.188 23.2826L152.663 23.6967C152.508 24.1971 152.247 24.637 151.881 25.0165C151.514 25.3918 151.061 25.6851 150.522 25.8965C149.982 26.1035 149.376 26.207 148.703 26.207ZM158.894 26.207C158.066 26.207 157.334 25.9978 156.7 25.5794C156.067 25.1567 155.57 24.5615 155.213 23.7938C154.854 23.0216 154.675 22.1094 154.675 21.057C154.675 20.0131 154.854 19.1073 155.213 18.3396C155.57 17.5718 156.068 16.9788 156.707 16.5604C157.345 16.1419 158.083 15.9328 158.92 15.9328C159.567 15.9328 160.078 16.0406 160.453 16.2563C160.832 16.4677 161.121 16.7092 161.32 16.9809C161.523 17.2483 161.68 17.4683 161.793 17.6409H161.921V12.7496H163.448V26H161.974V24.4731H161.793C161.68 24.6542 161.52 24.8829 161.314 25.1589C161.107 25.4307 160.811 25.6744 160.427 25.89C160.043 26.1014 159.532 26.207 158.894 26.207ZM159.101 24.8354C159.713 24.8354 160.231 24.6758 160.654 24.3567C161.076 24.0332 161.398 23.5867 161.617 23.0173C161.837 22.4437 161.947 21.7816 161.947 21.0311C161.947 20.2892 161.839 19.6401 161.624 19.0836C161.408 18.5229 161.089 18.0873 160.666 17.7767C160.244 17.4619 159.721 17.3044 159.101 17.3044C158.454 17.3044 157.915 17.4704 157.483 17.8026C157.056 18.1304 156.735 18.5768 156.519 19.1419C156.308 19.7026 156.202 20.3323 156.202 21.0311C156.202 21.7385 156.31 22.3812 156.526 22.9591C156.746 23.5328 157.069 23.99 157.496 24.3307C157.928 24.6672 158.462 24.8354 159.101 24.8354ZM166.457 26V16.0621H167.984V26H166.457ZM167.234 14.4058C166.936 14.4058 166.679 14.3045 166.464 14.1018C166.252 13.899 166.147 13.6554 166.147 13.3707C166.147 13.086 166.252 12.8423 166.464 12.6396C166.679 12.4369 166.936 12.3355 167.234 12.3355C167.531 12.3355 167.785 12.4369 167.996 12.6396C168.213 12.8423 168.32 13.086 168.32 13.3707C168.32 13.6554 168.213 13.899 167.996 14.1018C167.785 14.3045 167.531 14.4058 167.234 14.4058ZM173.705 26.233C173.076 26.233 172.503 26.1143 171.99 25.8771C171.477 25.6355 171.07 25.2883 170.767 24.8354C170.466 24.3782 170.315 23.8261 170.315 23.1791C170.315 22.6098 170.427 22.1482 170.651 21.7946C170.876 21.4366 171.175 21.1562 171.551 20.9535C171.926 20.7507 172.34 20.5997 172.793 20.5005C173.25 20.397 173.709 20.3151 174.17 20.2547C174.774 20.177 175.264 20.1189 175.639 20.08C176.019 20.0368 176.295 19.9657 176.467 19.8665C176.645 19.7673 176.733 19.5948 176.733 19.3489V19.2972C176.733 18.6588 176.558 18.1628 176.209 17.8091C175.863 17.4554 175.34 17.2786 174.637 17.2786C173.908 17.2786 173.336 17.4382 172.923 17.7573C172.508 18.0765 172.217 18.4172 172.049 18.7795L170.6 18.2619C170.858 17.6581 171.203 17.1879 171.635 16.8516C172.07 16.5108 172.545 16.2735 173.058 16.1398C173.576 16.0018 174.085 15.9328 174.585 15.9328C174.904 15.9328 175.271 15.9716 175.685 16.0493C176.103 16.1225 176.507 16.2757 176.895 16.5086C177.287 16.7415 177.613 17.0931 177.872 17.5632C178.131 18.0333 178.259 18.6631 178.259 19.4524V26H176.733V24.6542H176.655C176.551 24.8699 176.38 25.1006 176.138 25.3466C175.896 25.5924 175.575 25.8016 175.174 25.9741C174.772 26.1466 174.283 26.233 173.705 26.233ZM173.938 24.8613C174.542 24.8613 175.051 24.7427 175.465 24.5054C175.883 24.2682 176.198 23.962 176.41 23.5867C176.625 23.2115 176.733 22.8168 176.733 22.4027V21.0052C176.668 21.0828 176.526 21.154 176.306 21.2187C176.09 21.2791 175.84 21.333 175.555 21.3805C175.275 21.4236 175.001 21.4624 174.734 21.4969C174.471 21.5271 174.257 21.553 174.093 21.5746C173.696 21.6263 173.326 21.7104 172.98 21.8269C172.64 21.9391 172.364 22.1094 172.153 22.3381C171.945 22.5623 171.842 22.8686 171.842 23.2567C171.842 23.7872 172.038 24.1884 172.431 24.4602C172.827 24.7276 173.329 24.8613 173.938 24.8613Z" fill="white"/>
</g>
</svg>
