<svg width="180" height="38" viewBox="0 0 180 38" fill="none" xmlns="http://www.w3.org/2000/svg">
<g id="635d8845f514272da68457d1_Logo%20North%20Star.svg">
<g id="Clip path group">
<mask id="mask0_1_759" style="mask-type:luminance" maskUnits="userSpaceOnUse" x="0" y="1" width="37" height="36">
<g id="a">
<path id="Vector" d="M36.03 1.08002H0.190002V36.92H36.03V1.08002Z" fill="white"/>
</g>
</mask>
<g mask="url(#mask0_1_759)">
<g id="Group">
<path id="Vector_2" d="M18.11 6.67999V31.32" stroke="white" stroke-width="0.968649" stroke-linecap="round" stroke-linejoin="round"/>
<path id="Vector_3" d="M7.44351 12.84L28.7795 25.16" stroke="white" stroke-width="0.968649" stroke-linecap="round" stroke-linejoin="round"/>
<path id="Vector_4" d="M7.44351 25.16L28.7795 12.84" stroke="white" stroke-width="0.968649" stroke-linecap="round" stroke-linejoin="round"/>
</g>
</g>
</g>
<path id="Vector_5" d="M56.9982 12.9539V25.2962H55.5518L48.8261 15.6056H48.7056V25.2962H47.2111V12.9539H48.6574L55.4071 22.6687H55.5277V12.9539H56.9982ZM73.3086 19.1251C73.3086 20.4268 73.0737 21.5517 72.6036 22.4999C72.1335 23.448 71.4887 24.1793 70.669 24.6935C69.8494 25.2078 68.9133 25.465 67.8607 25.465C66.808 25.465 65.8718 25.2078 65.0523 24.6935C64.2327 24.1793 63.5879 23.448 63.1178 22.4999C62.6477 21.5517 62.4127 20.4268 62.4127 19.1251C62.4127 17.8233 62.6477 16.6984 63.1178 15.7502C63.5879 14.802 64.2327 14.0707 65.0523 13.5565C65.8718 13.0422 66.808 12.7852 67.8607 12.7852C68.9133 12.7852 69.8494 13.0422 70.669 13.5565C71.4887 14.0707 72.1335 14.802 72.6036 15.7502C73.0737 16.6984 73.3086 17.8233 73.3086 19.1251ZM71.8623 19.1251C71.8623 18.0563 71.6835 17.1543 71.3259 16.4191C70.9724 15.6839 70.4922 15.1274 69.8855 14.7498C69.2829 14.3721 68.608 14.1833 67.8607 14.1833C67.1134 14.1833 66.4364 14.3721 65.8297 14.7498C65.227 15.1274 64.747 15.6839 64.3893 16.4191C64.0358 17.1543 63.859 18.0563 63.859 19.1251C63.859 20.1938 64.0358 21.0958 64.3893 21.831C64.747 22.5662 65.227 23.1227 65.8297 23.5003C66.4364 23.878 67.1134 24.0668 67.8607 24.0668C68.608 24.0668 69.2829 23.878 69.8855 23.5003C70.4922 23.1227 70.9724 22.5662 71.3259 21.831C71.6835 21.0958 71.8623 20.1938 71.8623 19.1251ZM78.7277 25.2962V12.9539H82.898C83.8623 12.9539 84.6537 13.1186 85.2724 13.4481C85.8912 13.7735 86.3492 14.2215 86.6466 14.792C86.9438 15.3624 87.0925 16.0113 87.0925 16.7385C87.0925 17.4658 86.9438 18.1106 86.6466 18.6731C86.3492 19.2356 85.8932 19.6775 85.2785 19.9989C84.6638 20.3163 83.8783 20.475 82.9221 20.475H79.5472V19.1251H82.8739C83.5328 19.1251 84.0632 19.0286 84.4649 18.8358C84.8707 18.643 85.164 18.3697 85.3448 18.0162C85.5296 17.6586 85.622 17.2327 85.622 16.7385C85.622 16.2444 85.5296 15.8125 85.3448 15.4428C85.16 15.0732 84.8646 14.7879 84.4589 14.587C84.0531 14.3822 83.5168 14.2797 82.8498 14.2797H80.2222V25.2962H78.7277ZM84.5372 19.7518L87.5746 25.2962H85.839L82.8498 19.7518H84.5372ZM91.8139 14.2797V12.9539H101.071V14.2797H97.1895V25.2962H95.695V14.2797H91.8139ZM106.283 25.2962V12.9539H107.778V18.4501H114.359V12.9539H115.853V25.2962H114.359V19.7759H107.778V25.2962H106.283ZM136.181 16.0394C136.108 15.4288 135.814 14.9546 135.3 14.6172C134.786 14.2797 134.155 14.1109 133.408 14.1109C132.862 14.1109 132.383 14.1994 131.974 14.3762C131.568 14.5529 131.25 14.796 131.022 15.1054C130.797 15.4147 130.684 15.7663 130.684 16.16C130.684 16.4895 130.762 16.7727 130.919 17.0097C131.08 17.2428 131.285 17.4376 131.534 17.5943C131.783 17.747 132.044 17.8736 132.318 17.974C132.591 18.0704 132.842 18.1488 133.07 18.209L134.324 18.5465C134.645 18.6309 135.003 18.7474 135.397 18.8961C135.795 19.0447 136.174 19.2476 136.536 19.5048C136.901 19.7579 137.202 20.0832 137.44 20.481C137.677 20.8788 137.795 21.3669 137.795 21.9455C137.795 22.6124 137.621 23.2151 137.271 23.7535C136.925 24.2918 136.419 24.7197 135.752 25.0371C135.09 25.3544 134.284 25.5132 133.336 25.5132C132.452 25.5132 131.686 25.3705 131.04 25.0853C130.397 24.8001 129.89 24.4023 129.521 23.8921C129.155 23.3818 128.949 22.7892 128.9 22.1142H130.443C130.483 22.5802 130.64 22.9659 130.913 23.2713C131.19 23.5726 131.54 23.7976 131.962 23.9463C132.387 24.0909 132.845 24.1632 133.336 24.1632C133.906 24.1632 134.419 24.0708 134.873 23.886C135.326 23.6972 135.687 23.436 135.951 23.1025C136.216 22.765 136.349 22.3714 136.349 21.9214C136.349 21.5115 136.235 21.1781 136.005 20.9209C135.777 20.6639 135.475 20.4549 135.101 20.2942C134.728 20.1335 134.324 19.9929 133.89 19.8724L132.372 19.4384C131.407 19.1612 130.644 18.7655 130.081 18.2512C129.519 17.737 129.237 17.064 129.237 16.2323C129.237 15.5413 129.424 14.9387 129.798 14.4243C130.176 13.9061 130.682 13.5043 131.317 13.219C131.955 12.9298 132.669 12.7852 133.457 12.7852C134.252 12.7852 134.959 12.9277 135.578 13.213C136.196 13.4943 136.686 13.8799 137.048 14.3702C137.414 14.8603 137.606 15.4167 137.627 16.0394H136.181ZM142.484 14.2797V12.9539H151.74V14.2797H147.86V25.2962H146.365V14.2797H142.484ZM156.017 25.2962H154.45L158.983 12.9539H160.526L165.057 25.2962H163.491L159.802 14.9065H159.705L156.017 25.2962ZM156.596 20.475H162.911V21.8009H156.596V20.475ZM169.886 25.2962V12.9539H174.056C175.02 12.9539 175.812 13.1186 176.431 13.4481C177.049 13.7735 177.507 14.2215 177.804 14.792C178.102 15.3624 178.251 16.0113 178.251 16.7385C178.251 17.4658 178.102 18.1106 177.804 18.6731C177.507 19.2356 177.051 19.6775 176.437 19.9989C175.822 20.3163 175.036 20.475 174.08 20.475H170.705V19.1251H174.031C174.691 19.1251 175.221 19.0286 175.623 18.8358C176.029 18.643 176.322 18.3697 176.502 18.0162C176.687 17.6586 176.779 17.2327 176.779 16.7385C176.779 16.2444 176.687 15.8125 176.502 15.4428C176.317 15.0732 176.023 14.7879 175.617 14.587C175.211 14.3822 174.675 14.2797 174.008 14.2797H171.38V25.2962H169.886ZM175.696 19.7518L178.732 25.2962H176.996L174.008 19.7518H175.696Z" fill="white"/>
</g>
</svg>
