<svg width="167" height="48" viewBox="0 0 167 48" fill="none" xmlns="http://www.w3.org/2000/svg">
<g id="635d8846e5fc3d4242b856d0_Logo%20Aperture.svg">
<g id="Clip path group">
<mask id="mask0_1_743" style="mask-type:luminance" maskUnits="userSpaceOnUse" x="1" y="0" width="49" height="48">
<g id="a">
<path id="Vector" d="M49.3971 0.00146484H1.39996V47.9986H49.3971V0.00146484Z" fill="white"/>
</g>
</mask>
<g mask="url(#mask0_1_743)">
<g id="Group">
<path id="Vector_2" d="M25.3985 41.9989C35.3391 41.9989 43.3974 33.9406 43.3974 24C43.3974 14.0595 35.3391 6.0011 25.3985 6.0011C15.458 6.0011 7.3996 14.0595 7.3996 24C7.3996 33.9406 15.458 41.9989 25.3985 41.9989Z" stroke="white" stroke-width="1.19993" stroke-linecap="round" stroke-linejoin="round"/>
<path id="Vector_3" d="M25.3985 6.0011L32.2794 25.2562" stroke="white" stroke-width="1.19993" stroke-linecap="round" stroke-linejoin="round"/>
<path id="Vector_4" d="M9.81819 15.0005L29.917 18.6753" stroke="white" stroke-width="1.19993" stroke-linecap="round" stroke-linejoin="round"/>
<path id="Vector_5" d="M9.81819 32.9995L23.0549 17.4191" stroke="white" stroke-width="1.19993" stroke-linecap="round" stroke-linejoin="round"/>
<path id="Vector_6" d="M25.3985 41.999L18.5176 22.7438" stroke="white" stroke-width="1.19993" stroke-linecap="round" stroke-linejoin="round"/>
<path id="Vector_7" d="M40.9789 32.9995L20.8801 29.3247" stroke="white" stroke-width="1.19993" stroke-linecap="round" stroke-linejoin="round"/>
<path id="Vector_8" d="M40.9789 15.0005L27.7421 30.5809" stroke="white" stroke-width="1.19993" stroke-linecap="round" stroke-linejoin="round"/>
</g>
</g>
</g>
<path id="Vector_9" d="M65.8131 32.9995H61.9536L67.8344 15.9642H72.4759L78.3484 32.9995H74.4889L70.2217 19.857H70.0886L65.8131 32.9995ZM65.572 26.3035H74.6884V29.115H65.572V26.3035ZM80.3322 37.7907V20.223H83.8257V22.3691H83.9838C84.139 22.0253 84.3637 21.6759 84.6575 21.3211C84.957 20.9606 85.3452 20.6611 85.8221 20.4227C86.3046 20.1787 86.9034 20.0567 87.6187 20.0567C88.5503 20.0567 89.4098 20.3007 90.1974 20.7887C90.9847 21.2712 91.6141 22.0003 92.0856 22.9764C92.5569 23.9468 92.7926 25.164 92.7926 26.6279C92.7926 28.053 92.5624 29.2564 92.1021 30.238C91.6475 31.2139 91.0264 31.9542 90.2389 32.4588C89.457 32.9578 88.5808 33.2074 87.6104 33.2074C86.9229 33.2074 86.3378 33.0938 85.8553 32.8664C85.3784 32.639 84.9875 32.3534 84.6825 32.0097C84.3775 31.6602 84.1446 31.3082 83.9838 30.9532H83.8757V37.7907H80.3322ZM83.8008 26.6113C83.8008 27.371 83.9061 28.0337 84.1168 28.5992C84.3277 29.1649 84.6326 29.6057 85.0319 29.9218C85.4311 30.2323 85.9164 30.3876 86.4875 30.3876C87.0642 30.3876 87.5522 30.2296 87.9515 29.9135C88.3508 29.5919 88.6529 29.1483 88.8581 28.5827C89.0688 28.0115 89.1742 27.3543 89.1742 26.6113C89.1742 25.8737 89.0716 25.2249 88.8664 24.6649C88.6613 24.1048 88.3591 23.6667 87.9599 23.3506C87.5605 23.0346 87.0697 22.8765 86.4875 22.8765C85.9109 22.8765 85.4228 23.029 85.0235 23.3339C84.6298 23.639 84.3277 24.0715 84.1168 24.6316C83.9061 25.1917 83.8008 25.8515 83.8008 26.6113ZM100.977 33.2491C99.6632 33.2491 98.5319 32.9828 97.5837 32.4505C96.641 31.9126 95.9145 31.1529 95.4044 30.1714C94.8942 29.1843 94.6391 28.017 94.6391 26.6695C94.6391 25.3552 94.8942 24.2019 95.4044 23.2093C95.9145 22.2166 96.6327 21.443 97.5588 20.8885C98.4904 20.334 99.5828 20.0567 100.836 20.0567C101.679 20.0567 102.464 20.1925 103.19 20.4643C103.922 20.7305 104.56 21.1326 105.103 21.6704C105.652 22.2083 106.079 22.8848 106.384 23.6999C106.689 24.5096 106.842 25.4578 106.842 26.5447V27.518H96.0532V25.322H103.506C103.506 24.8118 103.395 24.3599 103.173 23.9662C102.952 23.5725 102.644 23.2647 102.25 23.0428C101.862 22.8155 101.41 22.7018 100.894 22.7018C100.356 22.7018 99.8795 22.8266 99.4636 23.0761C99.0532 23.3201 98.7316 23.6501 98.4987 24.066C98.2658 24.4763 98.1465 24.9338 98.141 25.4385V27.5263C98.141 28.1584 98.2575 28.7046 98.4904 29.1649C98.7288 29.6252 99.0643 29.9801 99.4968 30.2296C99.9294 30.4792 100.442 30.6039 101.036 30.6039C101.429 30.6039 101.79 30.5485 102.117 30.4375C102.444 30.3266 102.724 30.1603 102.957 29.9385C103.19 29.7166 103.368 29.4449 103.489 29.1234L106.767 29.3396C106.6 30.127 106.259 30.8147 105.744 31.4024C105.233 31.9847 104.574 32.4394 103.764 32.7666C102.96 33.0882 102.031 33.2491 100.977 33.2491ZM109.154 32.9995V20.223H112.589V22.4522H112.722C112.955 21.6593 113.346 21.0604 113.895 20.6556C114.444 20.2452 115.076 20.04 115.792 20.04C115.969 20.04 116.161 20.0512 116.366 20.0734C116.571 20.0956 116.751 20.1261 116.906 20.1648V23.309C116.74 23.2591 116.51 23.2148 116.216 23.1759C115.922 23.1372 115.653 23.1177 115.409 23.1177C114.888 23.1177 114.422 23.2314 114.012 23.4587C113.607 23.6806 113.285 23.9911 113.047 24.3904C112.814 24.7897 112.697 25.2499 112.697 25.7711V32.9995H109.154ZM126.174 20.223V22.8848H118.48V20.223H126.174ZM120.227 17.162H123.771V29.0734C123.771 29.4005 123.82 29.6556 123.921 29.8386C124.021 30.0161 124.159 30.1409 124.336 30.213C124.52 30.285 124.73 30.3211 124.969 30.3211C125.135 30.3211 125.301 30.3072 125.468 30.2795C125.634 30.2463 125.762 30.2213 125.85 30.2046L126.407 32.8415C126.23 32.8969 125.98 32.9607 125.658 33.0327C125.337 33.1104 124.947 33.1575 124.486 33.1742C123.632 33.2074 122.883 33.0938 122.24 32.8332C121.603 32.5726 121.106 32.1677 120.751 31.6187C120.396 31.0698 120.222 30.3766 120.227 29.5393V17.162ZM136.676 27.5595V20.223H140.22V32.9995H136.818V30.6788H136.685C136.397 31.4273 135.917 32.0291 135.246 32.4838C134.58 32.9385 133.768 33.1658 132.809 33.1658C131.954 33.1658 131.203 32.9718 130.554 32.5836C129.905 32.1954 129.397 31.6437 129.031 30.9283C128.671 30.213 128.488 29.3563 128.483 28.358V20.223H132.026V27.7259C132.032 28.4801 132.234 29.0762 132.634 29.5143C133.033 29.9524 133.568 30.1714 134.239 30.1714C134.666 30.1714 135.065 30.0743 135.437 29.8803C135.809 29.6806 136.107 29.3867 136.335 28.9986C136.568 28.6104 136.682 28.1307 136.676 27.5595ZM143.054 32.9995V20.223H146.489V22.4522H146.622C146.855 21.6593 147.246 21.0604 147.795 20.6556C148.344 20.2452 148.977 20.04 149.692 20.04C149.869 20.04 150.06 20.0512 150.265 20.0734C150.471 20.0956 150.651 20.1261 150.807 20.1648V23.309C150.64 23.2591 150.409 23.2148 150.115 23.1759C149.821 23.1372 149.553 23.1177 149.309 23.1177C148.788 23.1177 148.321 23.2314 147.911 23.4587C147.507 23.6806 147.185 23.9911 146.946 24.3904C146.714 24.7897 146.597 25.2499 146.597 25.7711V32.9995H143.054ZM157.866 33.2491C156.552 33.2491 155.42 32.9828 154.472 32.4505C153.529 31.9126 152.803 31.1529 152.293 30.1714C151.783 29.1843 151.528 28.017 151.528 26.6695C151.528 25.3552 151.783 24.2019 152.293 23.2093C152.803 22.2166 153.522 21.443 154.447 20.8885C155.379 20.334 156.471 20.0567 157.725 20.0567C158.568 20.0567 159.352 20.1925 160.078 20.4643C160.81 20.7305 161.449 21.1326 161.992 21.6704C162.541 22.2083 162.968 22.8848 163.273 23.6999C163.577 24.5096 163.73 25.4578 163.73 26.5447V27.518H152.942V25.322H160.395C160.395 24.8118 160.284 24.3599 160.062 23.9662C159.841 23.5725 159.532 23.2647 159.139 23.0428C158.75 22.8155 158.299 22.7018 157.783 22.7018C157.245 22.7018 156.768 22.8266 156.353 23.0761C155.942 23.3201 155.621 23.6501 155.388 24.066C155.155 24.4763 155.035 24.9338 155.03 25.4385V27.5263C155.03 28.1584 155.147 28.7046 155.379 29.1649C155.617 29.6252 155.953 29.9801 156.385 30.2296C156.818 30.4792 157.331 30.6039 157.925 30.6039C158.318 30.6039 158.678 30.5485 159.006 30.4375C159.333 30.3266 159.613 30.1603 159.846 29.9385C160.078 29.7166 160.256 29.4449 160.378 29.1234L163.655 29.3396C163.489 30.127 163.148 30.8147 162.632 31.4024C162.122 31.9847 161.462 32.4394 160.653 32.7666C159.849 33.0882 158.919 33.2491 157.866 33.2491Z" fill="white"/>
</g>
</svg>
