<svg width="143" height="48" viewBox="0 0 143 48" fill="none" xmlns="http://www.w3.org/2000/svg">
<g id="635d884660eb5a25b9957967_Logo%20Cubic.svg">
<g id="Clip path group">
<mask id="mask0_1_797" style="mask-type:luminance" maskUnits="userSpaceOnUse" x="1" y="0" width="49" height="48">
<g id="a">
<path id="Vector" d="M49.1867 0.00170898H1.19006V47.9983H49.1867V0.00170898Z" fill="white"/>
</g>
</mask>
<g mask="url(#mask0_1_797)">
<g id="Group">
<path id="Vector_2" d="M43.1872 33.2433V14.7572C43.1857 14.4901 43.114 14.2281 42.979 13.9977C42.844 13.7674 42.6507 13.5766 42.4185 13.4447L25.9197 4.16413C25.6973 4.03578 25.4451 3.9682 25.1884 3.9682C24.9318 3.9682 24.6795 4.03578 24.4572 4.16413L7.95839 13.4447C7.72619 13.5766 7.53286 13.7674 7.39791 13.9977C7.26295 14.2281 7.19114 14.4901 7.1897 14.7572V33.2433C7.19114 33.5104 7.26295 33.7722 7.39791 34.0027C7.53286 34.2331 7.72619 34.4239 7.95839 34.5558L24.4572 43.8363C24.6795 43.9647 24.9318 44.0322 25.1884 44.0322C25.4451 44.0322 25.6973 43.9647 25.9197 43.8363L42.4185 34.5558C42.6507 34.4239 42.844 34.2331 42.979 34.0027C43.114 33.7722 43.1857 33.5104 43.1872 33.2433Z" stroke="white" stroke-width="1.19992" stroke-linecap="round" stroke-linejoin="round"/>
<path id="Vector_3" d="M42.9809 13.9882L25.3572 24L7.396 13.9882" stroke="white" stroke-width="1.19992" stroke-linecap="round" stroke-linejoin="round"/>
<path id="Vector_4" d="M25.3572 24L25.1885 44.0236" stroke="white" stroke-width="1.19992" stroke-linecap="round" stroke-linejoin="round"/>
</g>
</g>
</g>
<path id="Vector_5" d="M75.3401 21.2882H73.4888C73.3792 20.7557 73.1876 20.2878 72.9139 19.8846C72.6451 19.4816 72.3167 19.1431 71.9285 18.8694C71.5453 18.5906 71.1198 18.3816 70.6519 18.2423C70.1841 18.103 69.6963 18.0333 69.1886 18.0333C68.263 18.0333 67.4244 18.2672 66.6729 18.735C65.9263 19.2028 65.3316 19.8922 64.8886 20.8029C64.4506 21.7137 64.2317 22.831 64.2317 24.1549C64.2317 25.4788 64.4506 26.5961 64.8886 27.5069C65.3316 28.4176 65.9263 29.1069 66.6729 29.5748C67.4244 30.0426 68.263 30.2765 69.1886 30.2765C69.6963 30.2765 70.1841 30.2068 70.6519 30.0675C71.1198 29.9282 71.5453 29.7215 71.9285 29.4478C72.3167 29.1691 72.6451 28.8282 72.9139 28.425C73.1876 28.0169 73.3792 27.5491 73.4888 27.0216H75.3401C75.2008 27.803 74.947 28.5022 74.5786 29.1193C74.2104 29.7365 73.7525 30.2616 73.2051 30.6946C72.6576 31.1226 72.043 31.4486 71.3611 31.6725C70.6842 31.8965 69.96 32.0085 69.1886 32.0085C67.8847 32.0085 66.7251 31.6899 65.7098 31.0528C64.6945 30.4158 63.8957 29.51 63.3135 28.3355C62.7312 27.1609 62.4399 25.7675 62.4399 24.1549C62.4399 22.5423 62.7312 21.1489 63.3135 19.9743C63.8957 18.7997 64.6945 17.8939 65.7098 17.2568C66.7251 16.6198 67.8847 16.3013 69.1886 16.3013C69.96 16.3013 70.6842 16.4133 71.3611 16.6372C72.043 16.8612 72.6576 17.1896 73.2051 17.6227C73.7525 18.0507 74.2104 18.5733 74.5786 19.1904C74.947 19.8026 75.2008 20.5019 75.3401 21.2882ZM91.9652 16.5104H93.8165V26.6334C93.8165 27.6786 93.5702 28.6117 93.0775 29.433C92.5897 30.2491 91.9004 30.8936 91.0096 31.3664C90.1187 31.8342 89.0735 32.0682 87.8741 32.0682C86.6746 32.0682 85.6295 31.8342 84.7387 31.3664C83.8477 30.8936 83.156 30.2491 82.6633 29.433C82.1755 28.6117 81.9316 27.6786 81.9316 26.6334V16.5104H83.7831V26.4841C83.7831 27.2306 83.9473 27.895 84.2758 28.4773C84.6043 29.0546 85.0721 29.51 85.6793 29.8435C86.2914 30.172 87.0231 30.3363 87.8741 30.3363C88.7252 30.3363 89.4568 30.172 90.0689 29.8435C90.681 29.51 91.1489 29.0546 91.4724 28.4773C91.8009 27.895 91.9652 27.2306 91.9652 26.4841V16.5104ZM101.114 31.7994V16.5104H106.459C107.524 16.5104 108.402 16.6944 109.094 17.0628C109.786 17.4261 110.301 17.9163 110.639 18.5334C110.978 19.1456 111.147 19.825 111.147 20.5715C111.147 21.2284 111.03 21.7709 110.796 22.1989C110.567 22.6269 110.264 22.9654 109.885 23.2143C109.512 23.4631 109.106 23.6472 108.668 23.7667V23.916C109.136 23.9459 109.607 24.1101 110.079 24.4087C110.552 24.7073 110.948 25.1353 111.266 25.6927C111.585 26.2502 111.744 26.932 111.744 27.7383C111.744 28.5047 111.57 29.1941 111.222 29.8061C110.873 30.4183 110.323 30.9036 109.572 31.2619C108.82 31.6203 107.842 31.7994 106.638 31.7994H101.114ZM102.965 30.157H106.638C107.847 30.157 108.706 29.9231 109.213 29.4553C109.726 28.9825 109.982 28.4102 109.982 27.7383C109.982 27.2207 109.851 26.7429 109.587 26.3049C109.323 25.862 108.947 25.5086 108.459 25.2448C107.972 24.9761 107.394 24.8417 106.727 24.8417H102.965V30.157ZM102.965 23.2292H106.399C106.956 23.2292 107.459 23.1197 107.907 22.9007C108.36 22.6818 108.718 22.3731 108.982 21.975C109.251 21.5769 109.385 21.109 109.385 20.5715C109.385 19.8996 109.151 19.3298 108.683 18.862C108.216 18.3891 107.474 18.1527 106.459 18.1527H102.965V23.2292ZM120.238 16.5104V31.7994H118.386V16.5104H120.238ZM139.852 21.2882H138.001C137.892 20.7557 137.7 20.2878 137.426 19.8846C137.157 19.4816 136.828 19.1431 136.441 18.8694C136.057 18.5906 135.632 18.3816 135.164 18.2423C134.696 18.103 134.209 18.0333 133.701 18.0333C132.775 18.0333 131.936 18.2672 131.185 18.735C130.439 19.2028 129.844 19.8922 129.401 20.8029C128.963 21.7137 128.743 22.831 128.743 24.1549C128.743 25.4788 128.963 26.5961 129.401 27.5069C129.844 28.4176 130.439 29.1069 131.185 29.5748C131.936 30.0426 132.775 30.2765 133.701 30.2765C134.209 30.2765 134.696 30.2068 135.164 30.0675C135.632 29.9282 136.057 29.7215 136.441 29.4478C136.828 29.1691 137.157 28.8282 137.426 28.425C137.7 28.0169 137.892 27.5491 138.001 27.0216H139.852C139.713 27.803 139.459 28.5022 139.091 29.1193C138.723 29.7365 138.265 30.2616 137.718 30.6946C137.169 31.1226 136.555 31.4486 135.873 31.6725C135.197 31.8965 134.472 32.0085 133.701 32.0085C132.397 32.0085 131.237 31.6899 130.222 31.0528C129.207 30.4158 128.407 29.51 127.825 28.3355C127.244 27.1609 126.952 25.7675 126.952 24.1549C126.952 22.5423 127.244 21.1489 127.825 19.9743C128.407 18.7997 129.207 17.8939 130.222 17.2568C131.237 16.6198 132.397 16.3013 133.701 16.3013C134.472 16.3013 135.197 16.4133 135.873 16.6372C136.555 16.8612 137.169 17.1896 137.718 17.6227C138.265 18.0507 138.723 18.5733 139.091 19.1904C139.459 19.8026 139.713 20.5019 139.852 21.2882Z" fill="white"/>
</g>
</svg>
