<svg width="25" height="25" viewBox="0 0 25 25" fill="none" xmlns="http://www.w3.org/2000/svg">
  <g id="Instagram Icon" clip-path="url(#clip0_1_2000)">
    <g id="Clip path group">
      <mask id="mask0_1_2000" style="mask-type:luminance" maskUnits="userSpaceOnUse" x="0" y="0" width="25" height="25">
        <g id="a">
          <path d="M24.13 0.1H0.13V24.1H24.13V0.1Z" fill="white"/>
        </g>
      </mask>
      <g mask="url(#mask0_1_2000)">
        <g id="Group">
          <g id="Clip path group_2">
            <mask id="mask1_1_2000" style="mask-type:luminance" maskUnits="userSpaceOnUse" x="0" y="0" width="25" height="25">
              <g id="b">
                <path d="M24.13 0.1H0.13V24.1H24.13V0.1Z" fill="white"/>
              </g>
            </mask>
            <g mask="url(#mask1_1_2000)">
              <g id="Group_2">
                <path d="M17.26 0.1H6.999C3.688 0.1 0.999 2.789 0.999 6.1V17.36C0.999 20.671 3.688 23.36 6.999 23.36H17.26C20.571 23.36 23.26 20.671 23.26 17.36V6.1C23.26 2.789 20.571 0.1 17.26 0.1ZM21.26 17.36C21.26 19.542 19.442 21.36 17.26 21.36H6.999C4.817 21.36 2.999 19.542 2.999 17.36V6.1C2.999 3.918 4.817 2.1 6.999 2.1H17.26C19.442 2.1 21.26 3.918 21.26 6.1V17.36Z" fill="white"/>
                <path d="M12.13 6.6C8.812 6.6 6.13 9.282 6.13 12.6C6.13 15.918 8.812 18.6 12.13 18.6C15.448 18.6 18.13 15.918 18.13 12.6C18.13 9.282 15.448 6.6 12.13 6.6ZM12.13 16.6C10.021 16.6 8.13 14.709 8.13 12.6C8.13 10.491 10.021 8.6 12.13 8.6C14.239 8.6 16.13 10.491 16.13 12.6C16.13 14.709 14.239 16.6 12.13 16.6Z" fill="white"/>
                <path d="M18.43 5.6C17.878 5.6 17.43 6.048 17.43 6.6C17.43 7.152 17.878 7.6 18.43 7.6C18.982 7.6 19.43 7.152 19.43 6.6C19.43 6.048 18.982 5.6 18.43 5.6Z" fill="white"/>
              </g>
            </g>
          </g>
        </g>
      </g>
    </g>
  </g>
  <defs>
    <clipPath id="clip0_1_2000">
      <rect width="24" height="24" fill="white" transform="translate(0.13 0.1)" />
    </clipPath>
  </defs>
</svg>
