<svg width="25" height="25" viewBox="0 0 25 25" fill="none" xmlns="http://www.w3.org/2000/svg">
<g id="635e74c37b758d9b16d0c97b_Social%20Icon%20LinkedIn.svg" clip-path="url(#clip0_1_1357)">
<g id="Clip path group">
<mask id="mask0_1_1357" style="mask-type:luminance" maskUnits="userSpaceOnUse" x="0" y="0" width="25" height="25">
<g id="a">
<path id="Vector" d="M24.13 0.100098H0.130005V24.1001H24.13V0.100098Z" fill="white"/>
</g>
</mask>
<g mask="url(#mask0_1_1357)">
<g id="Group">
<g id="Clip path group_2">
<mask id="mask1_1_1357" style="mask-type:luminance" maskUnits="userSpaceOnUse" x="0" y="0" width="25" height="25">
<g id="b">
<path id="Vector_2" d="M24.13 0.100098H0.130005V24.1001H24.13V0.100098Z" fill="white"/>
</g>
</mask>
<g mask="url(#mask1_1_1357)">
<g id="Group_2">
<g id="Clip path group_3">
<mask id="mask2_1_1357" style="mask-type:luminance" maskUnits="userSpaceOnUse" x="0" y="0" width="25" height="25">
<g id="c">
<path id="Vector_3" d="M24.13 0.100098H0.130005V24.1001H24.13V0.100098Z" fill="white"/>
</g>
</mask>
<g mask="url(#mask2_1_1357)">
<g id="Group_3">
<path id="Vector_4" d="M21.7123 0.100098H2.55054C2.23213 0.100641 1.91693 0.163159 1.62296 0.284085C1.32899 0.405011 1.062 0.581977 0.837239 0.804876C0.612473 1.02777 0.434331 1.29225 0.312987 1.58318C0.191642 1.87412 0.129469 2.18583 0.130019 2.50051V21.7011C0.128918 22.016 0.190696 22.3281 0.311811 22.6194C0.432926 22.9108 0.611003 23.1757 0.835842 23.3989C1.06068 23.6221 1.32786 23.7993 1.6221 23.9203C1.91633 24.0414 2.23183 24.1039 2.55054 24.1042H21.7123C22.0305 24.1037 22.3455 24.0412 22.6393 23.9203C22.9331 23.7995 23.2 23.6226 23.4246 23.3999C23.6492 23.1771 23.8273 22.9128 23.9486 22.622C24.0698 22.3312 24.132 22.0197 24.1314 21.7052V2.50051C24.1325 1.86522 23.8783 1.25549 23.4247 0.805363C22.9711 0.355237 22.3551 0.10156 21.7123 0.100098ZM7.83131 19.091H4.60254V8.82436H7.83131V19.091ZM6.19667 7.56483C5.17626 7.56483 4.52157 6.85023 4.52157 5.9687C4.51739 5.06647 5.19721 4.3767 6.24134 4.3767C7.28549 4.3767 7.91645 5.06647 7.94018 5.97145C7.93739 6.85023 7.2799 7.56483 6.19667 7.56483ZM19.6212 19.091H16.3924V13.4003C16.3924 12.0787 15.9248 11.1751 14.7564 11.1751C13.8644 11.1751 13.334 11.7849 13.0995 12.3726C13.0168 12.6301 12.9809 12.9 12.9934 13.1699V19.091H9.76464V12.1022C9.76464 10.8219 9.72137 9.75693 9.67949 8.82712H12.4839L12.6319 10.2549H12.6961C13.1148 9.58311 14.1618 8.59949 15.9067 8.59949C18.0313 8.59949 19.624 10.0066 19.624 13.0292L19.6212 19.091Z" fill="white"/>
</g>
</g>
</g>
</g>
</g>
</g>
</g>
</g>
</g>
</g>
<defs>
<clipPath id="clip0_1_1357">
<rect width="24" height="24" fill="white" transform="translate(0.130005 0.100098)"/>
</clipPath>
</defs>
</svg>
