<svg width="25" height="25" viewBox="0 0 25 25" fill="none" xmlns="http://www.w3.org/2000/svg">
<g id="635e74c3c8f1b25431a8b91b_Social%20Icon%20Facebook.svg" clip-path="url(#clip0_1_1317)">
<g id="Clip path group">
<mask id="mask0_1_1317" style="mask-type:luminance" maskUnits="userSpaceOnUse" x="0" y="0" width="25" height="25">
<g id="a">
<path id="Vector" d="M24.13 0.100098H0.130005V24.1001H24.13V0.100098Z" fill="white"/>
</g>
</mask>
<g mask="url(#mask0_1_1317)">
<g id="Group">
<g id="Clip path group_2">
<mask id="mask1_1_1317" style="mask-type:luminance" maskUnits="userSpaceOnUse" x="0" y="0" width="25" height="25">
<g id="b">
<path id="Vector_2" d="M24.13 0.100098H0.130005V24.1001H24.13V0.100098Z" fill="white"/>
</g>
</mask>
<g mask="url(#mask1_1_1317)">
<g id="Group_2">
<path id="Vector_3" d="M12.13 0.100098C5.50258 0.100098 0.130005 5.50551 0.130005 12.1734C0.130005 18.1995 4.5182 23.1944 10.255 24.1001V15.6634H7.20813V12.1734H10.255V9.51353C10.255 6.48765 12.0466 4.81625 14.7876 4.81625C16.1001 4.81625 17.4738 5.05205 17.4738 5.05205V8.02323H15.9606C14.47 8.02323 14.005 8.95396 14.005 9.90969V12.1734H17.3331L16.8011 15.6634H14.005V24.1001C19.7418 23.1944 24.13 18.1995 24.13 12.1734C24.13 5.50551 18.7574 0.100098 12.13 0.100098Z" fill="white"/>
</g>
</g>
</g>
</g>
</g>
</g>
</g>
<defs>
<clipPath id="clip0_1_1317">
<rect width="24" height="24" fill="white" transform="translate(0.130005 0.100098)"/>
</clipPath>
</defs>
</svg>
