<svg width="25" height="25" viewBox="0 0 25 25" fill="none" xmlns="http://www.w3.org/2000/svg">
<g id="635e74c3f51427a47a8d1acb_Social%20Icon%20Twitter.svg" clip-path="url(#clip0_1_1331)">
<g id="Clip path group">
<mask id="mask0_1_1331" style="mask-type:luminance" maskUnits="userSpaceOnUse" x="0" y="0" width="25" height="25">
<g id="a">
<path id="Vector" d="M24.13 0.100098H0.130005V24.1001H24.13V0.100098Z" fill="white"/>
</g>
</mask>
<g mask="url(#mask0_1_1331)">
<g id="Group">
<path id="Vector_2" d="M20.9075 7.59671C20.921 7.79132 20.921 7.98592 20.921 8.18232C20.921 14.1666 16.3653 21.0683 8.03496 21.0683V21.0647C5.57416 21.0683 3.16448 20.3634 1.0929 19.0344C1.45071 19.0774 1.81032 19.099 2.17083 19.0999C4.21014 19.1017 6.19115 18.4174 7.79551 17.1574C5.85755 17.1206 4.15813 15.8571 3.56445 14.0124C4.24332 14.1433 4.94282 14.1164 5.60914 13.9343C3.49629 13.5075 1.97623 11.6511 1.97623 9.49522C1.97623 9.47549 1.97623 9.45666 1.97623 9.43783C2.60578 9.78847 3.31066 9.98308 4.03168 10.0046C2.0417 8.67466 1.42829 6.02733 2.62999 3.95753C4.92937 6.78691 8.32194 8.50696 11.9638 8.68901C11.5988 7.11603 12.0974 5.46773 13.274 4.36198C15.0981 2.64732 17.9669 2.7352 19.6816 4.55838C20.6959 4.3584 21.668 3.98623 22.5576 3.45891C22.2195 4.50726 21.5119 5.39778 20.5667 5.96366C21.4644 5.85783 22.3415 5.61749 23.1674 5.25071C22.5594 6.16185 21.7935 6.95551 20.9075 7.59671Z" fill="white"/>
</g>
</g>
</g>
</g>
<defs>
<clipPath id="clip0_1_1331">
<rect width="24" height="24" fill="white" transform="translate(0.130005 0.100098)"/>
</clipPath>
</defs>
</svg>
